# xmcd
#
# Track frame offsets:
#	182
#	14647
#	25402
#	40185
#	53647
#	65842
#	76757
#	87145
#	102235
#	114322
#	124712
#
# Disc length: 1810 seconds
#
# Revision: 0
# Processed by: cddbd v1.4PL0 Copyright (c) Steve Scherf et al.
# Submitted via: dBpowerAMP V4.0
#
DISCID=8607100b
DTITLE=Johnny Hallyday - Le livre
DYEAR=1900
DGENRE=Rock and Roll
TTITLE0=Hey Joe
TTITLE1=Tu n'as rien de tout ça
TTITLE2=Excuse moi partenaire
TTITLE3=Quand je l'ai vue devant moi
TTITLE4=C'est bien lui
TTITLE5=Bolt of love
TTITLE6=J'embrasse les filles
TTITLE7=Pour moi tu es la seule
TTITLE8=Such a night
TTITLE9=Moi cette fille la
TTITLE10=Ca suffit
EXTD=
EXTT0=
EXTT1=
EXTT2=
EXTT3=
EXTT4=
EXTT5=
EXTT6=
EXTT7=
EXTT8=
EXTT9=
EXTT10=
PLAYORDER=
